<svg width="114" height="76" viewBox="0 0 114 76" fill="none" xmlns="http://www.w3.org/2000/svg">
<path d="M21.0084 0.949188C19.8171 1.02386 19.1146 2.86748 18.6809 4.00591C18.6047 4.2058 18.5368 4.38397 18.476 4.52698C16.6885 8.73263 16.4692 10.85 16.1611 11.0643C15.8337 11.292 15.4059 9.37023 12.889 5.52126C12.8083 5.39786 12.7155 5.24199 12.6114 5.0671C12.0181 4.07111 11.0575 2.45815 9.8795 2.7121C9.40231 2.81497 9.08791 2.91617 8.74249 3.37643C8.17104 4.1379 8.09974 5.13565 8.42276 6.13097C9.61932 9.81794 12.5638 12.7248 15.4185 13.8256C15.3618 14.4705 15.4566 15.3467 15.4185 16.0096C15.309 17.9136 15.2026 19.8221 15.0908 21.7291C13.8746 20.1761 12.5775 18.9733 11.2105 17.6126C9.63334 16.0429 7.99863 14.4927 6.38931 13.5472C5.29412 12.9038 3.63561 11.9798 3.04372 12.69C2.4822 13.3637 2.55604 14.8836 3.43683 16.4714C4.5263 18.4354 6.63954 20.7201 8.13072 21.9377C10.0222 23.4822 12.6075 24.1223 14.8018 23.668C14.7556 24.7374 14.9328 27.0303 14.9245 28.1068C14.9085 30.1589 14.8018 31.4315 14.6752 33.0428C13.9427 32.0021 11.8137 29.2993 9.83153 27.6448C9.72809 27.5584 9.60615 27.4458 9.46932 27.3194C8.69008 26.5997 7.42814 25.4342 6.35438 26.1414C5.9194 26.4279 5.63992 26.6487 5.40694 27.2254C5.0215 28.1794 5.165 29.1627 5.68546 29.9882C7.75661 33.2733 11.5678 34.9018 14.6678 34.5537C14.3948 36.7626 14.2726 38.6348 14.6463 42.2919C13.7207 41.0639 12.4639 40.0849 11.3768 39.2077C10.9253 38.8433 10.4737 38.4789 10.0267 38.0761C8.15371 36.3883 6.21536 34.7273 4.32994 33.7588C3.04686 33.0997 1.10578 32.1595 0.453917 33.0183C-0.164493 33.8331 -0.0199645 35.5733 1.054 37.3326C2.44867 39.6172 4.76627 41.881 6.65963 43.2679C8.25398 44.4359 10.6284 45.1476 12.443 44.9971C12.5935 44.9846 12.7448 44.9745 12.8958 44.9644C13.469 44.9262 14.0986 44.9413 14.6464 44.6728C14.6491 45.4212 14.9245 50.008 15.1603 50.5873C15.2833 50.8896 15.4841 51.0168 15.9012 50.8896C16.1248 50.8213 16.1248 50.7244 16.1611 48.9231C16.1481 47.8065 16.1351 46.4306 16.1285 45.349C16.6757 45.5298 17.2706 45.4718 17.8278 45.4581C17.979 45.4544 18.1304 45.4506 18.2812 45.4493C20.1346 45.4336 22.4004 44.5352 23.9666 43.1963C24.9114 42.3886 25.9156 41.2854 26.7855 40.1959C26.9108 40.039 27.0394 39.8799 27.1698 39.7188C27.9109 38.802 28.7076 37.8168 29.2679 36.7626C30.2529 34.9092 30.3116 33.1598 29.6545 32.4033C28.9619 31.6059 27.0714 32.7211 25.8236 33.4958C23.99 34.6342 22.1377 36.4685 20.3519 38.3233C19.9257 38.766 19.493 39.1709 19.0604 39.5756C18.1764 40.4027 17.3432 41.2962 16.5165 42.223C16.37 42.3874 16.2397 42.5471 16.1248 42.7019C15.6593 37.7785 15.6567 36.8893 15.9012 34.8927C15.9819 34.9705 16.3423 34.8876 16.4878 34.8927C19.5996 35.0003 23.3414 33.0734 25.2716 29.6264C25.7561 28.7612 25.8576 27.7683 25.4323 26.8462C25.1752 26.2889 24.8868 26.0905 24.4403 25.8389C23.3383 25.2175 22.128 26.4807 21.3807 27.2607C21.2495 27.3977 21.1325 27.5197 21.0329 27.6141C18.9013 29.6336 16.6424 32.9731 16.2424 33.6929C16.2074 33.7559 16.1305 34.0524 15.9012 34.1657C15.9012 33.7289 15.8831 32.311 15.9012 29.9882C15.9054 29.4467 16.1732 24.8932 16.2818 24.8991C18.5274 25.0202 21.0518 23.9512 22.7731 22.1593C24.2008 20.6732 26.0459 18.1745 26.9869 16.0096C27.7313 14.297 27.6794 12.7755 27.0659 12.1919C26.4192 11.5767 24.8473 12.7486 23.8121 13.5556C22.2909 14.7413 20.7942 16.5318 19.3565 18.3328C19.0133 18.7627 18.6623 19.1605 18.3114 19.5581C17.9829 19.9304 17.6545 20.3026 17.3326 20.701C17.0699 21.0261 16.8125 21.3785 16.5565 21.7291C16.4936 21.8152 16.4307 21.9013 16.3679 21.9868C16.4258 20.9554 16.4926 19.9219 16.5599 18.88C16.6225 17.9123 16.6855 16.9374 16.7422 15.9504C16.7832 15.238 16.8446 14.5432 16.9083 13.8216C16.9166 13.7331 16.924 13.6444 16.9318 13.5558C19.6746 11.7652 22.2908 7.98452 22.9409 3.89799C23.1101 2.83441 22.8927 1.87669 22.2204 1.28774C21.814 0.931749 21.4911 0.918938 21.0084 0.949188Z" fill="#658B5B"/>
<path d="M36.2319 54.5089C36.1226 54.9464 36.0679 55.4152 36.0679 55.9152V56.4542C36.0679 57.2823 36.1226 57.8761 36.2319 58.2355C36.2319 60.5948 36.2241 62.4152 36.2085 63.6964C36.1147 64.1027 28.4038 64.3058 13.0757 64.3058C12.3726 64.3058 11.2085 64.2902 9.5835 64.2589C9.3335 63.7902 9.2085 63.0167 9.2085 61.9386L9.25537 60.4152V55.0948L9.27881 50.6417V46.2355L9.30225 39.1339C9.30225 37.8214 9.28662 36.587 9.25537 35.4308V35.173L9.18506 31.798C9.18506 29.8136 9.34912 28.5245 9.67725 27.9308C9.98975 27.9464 10.4194 27.9542 10.9663 27.9542H12.0913L16.0288 27.9073C20.5132 27.9073 22.9819 28.1886 23.4351 28.7511L23.2476 36.9308L23.1772 43.798L23.1538 44.0792L23.0601 53.8292L23.9976 54.3683C26.8257 54.1964 29.5601 54.1105 32.2007 54.1105C34.8569 54.1105 36.2007 54.2433 36.2319 54.5089ZM52.3335 37.7277L52.2866 52.6105C52.2866 54.2042 52.8569 55.0011 53.9976 55.0011C54.9507 55.0011 55.4272 54.1573 55.4272 52.4698V35.5011L63.1382 35.4777H70.7788L70.8022 63.4855H57.6772L56.5757 59.6886C54.5757 62.798 51.8335 64.3527 48.3491 64.3527C45.3491 64.3527 42.8257 63.4933 40.7788 61.7745L40.8022 61.6105C40.5366 61.5323 40.2085 61.2511 39.8179 60.7667C39.4272 60.2667 39.1304 59.837 38.9272 59.4777C37.9116 57.6339 37.4038 54.923 37.4038 51.3448L37.4272 50.5948V35.5011H44.8804L52.3335 35.4777V37.7277ZM85.4038 47.9464L85.6382 47.9698H86.2007C86.7319 47.9698 87.146 47.9308 87.4429 47.8527L88.7085 47.6886C90.8647 47.5323 92.1616 46.9542 92.5991 45.9542C92.8179 45.4542 92.9272 44.8214 92.9272 44.0558C92.8335 43.8995 92.7866 43.6027 92.7866 43.1652C92.7866 42.7277 92.5601 42.2667 92.1069 41.7823C91.6694 41.298 91.146 41.0558 90.5366 41.0558H90.4194C88.9194 41.0558 88.1694 42.3292 88.1694 44.8761C88.0913 45.0011 87.9585 45.048 87.771 45.0167C87.5991 44.9855 87.1694 44.9698 86.4819 44.9698H74.3882C74.4663 43.8917 74.7476 42.7277 75.2319 41.4777C76.1538 39.0714 77.9351 37.3448 80.5757 36.298C83.2319 35.2355 85.8647 34.6573 88.4741 34.5636L89.8804 34.4933L90.6304 34.423C90.7241 34.423 90.8179 34.4464 90.9116 34.4933H91.2163L92.271 34.4464C92.4897 34.4464 92.9819 34.5011 93.7476 34.6105L94.4272 34.7042C94.5366 34.7198 94.7085 34.7277 94.9429 34.7277C95.1772 34.7277 95.6694 34.7823 96.4194 34.8917C97.1694 34.9855 98.1069 35.2511 99.2319 35.6886C103.044 37.1886 105.357 40.0636 106.169 44.3136C106.513 46.1105 106.685 48.1027 106.685 50.2902C106.794 50.6495 106.849 50.9777 106.849 51.2745L106.732 52.8917V55.6105C106.748 55.6417 106.755 55.7745 106.755 56.0089L106.708 57.6027V57.8136C106.755 57.8917 106.779 58.0011 106.779 58.1417L106.755 58.3527V58.8448C106.755 60.3292 106.982 61.7355 107.435 63.0636L107.669 63.5792H97.0757L96.2319 63.5558C95.6069 63.5558 95.1304 63.5636 94.8022 63.5792C94.3022 62.6417 93.8257 61.3605 93.3726 59.7355C93.1694 60.1573 92.8179 60.6417 92.3179 61.1886C91.8335 61.7198 91.4741 61.9855 91.2397 61.9855C88.9272 63.1105 87.1694 63.7511 85.9663 63.9073C84.1851 64.2042 83.2241 64.3527 83.0835 64.3527C82.9585 64.3527 82.896 64.3527 82.896 64.3527C79.1616 64.3527 76.3413 63.0558 74.4351 60.462C73.4819 59.1339 73.0054 57.5948 73.0054 55.8448C73.0054 52.048 74.771 49.7198 78.3022 48.8605C79.2085 48.6417 80.9585 48.4152 83.5522 48.1808L84.3257 48.1105L85.4038 47.9464ZM93.0913 53.3839L93.1147 52.6339C93.1147 51.8527 93.0522 51.1027 92.9272 50.3839C92.5835 50.5714 92.0835 50.7823 91.4272 51.0167C90.771 51.2511 90.2476 51.4542 89.8569 51.6261C89.4663 51.7823 89.1069 52.0714 88.7788 52.4933C88.4663 52.8995 88.3101 53.462 88.3101 54.1808C88.3101 54.8995 88.5366 55.5558 88.9897 56.1495C89.4585 56.7433 89.9663 57.0402 90.5132 57.0402C91.6851 57.0402 92.521 56.6183 93.021 55.7745L93.0679 55.5402L93.0913 54.087V53.3839Z" fill="#F4A5AE"/>
</svg>
